<svg width="32" height="32" viewBox="0 0 32 32" fill="none" xmlns="http://www.w3.org/2000/svg">
<path d="M31.0956 3C32.0552 3 32.3528 5.58509 31.4881 6.41531L23.1024 14.4736C22.4195 15.1301 22.4224 17.0677 23.1075 17.7152L31.4243 25.5795C32.294 26.402 31.9998 29 31.0369 29H27.8099C27.6764 29 27.5446 28.9414 27.4241 28.828L20.9067 22.7004C18.1423 20.1011 13.9024 20.1016 11.1384 22.7004L4.62104 28.828C4.50057 28.9414 4.36877 29 4.23529 29H0.962959C6.37673e-05 29 -0.294178 26.402 0.575534 25.5795L8.89237 17.7152C9.57739 17.0677 9.58033 15.1301 8.8974 14.4736L0.511733 6.41531C-0.352522 5.58466 -0.0553423 3 0.904195 3L4.23361 3C4.36793 3 4.50057 3.05949 4.62146 3.17415L11.1204 9.32413C13.8899 11.945 18.1545 11.945 20.9239 9.32413L27.4229 3.17415C27.5437 3.05949 27.6764 3 27.8107 3L31.0956 3Z" fill="white"/>
</svg>
